<svg width="1280" height="121" viewBox="0 0 1280 121" fill="none" xmlns="http://www.w3.org/2000/svg">
<path fill-rule="evenodd" clip-rule="evenodd" d="M0 10L53 3.50004C157.5 -6.49991 261 9.99995 320 26C419.5 52.9832 533 75.766 640 79.9365C747 84.107 853 71.5954 960 67.7457C1067 63.5752 1174.27 81.4516 1227 69.6706C1249.59 64.6232 1261.3 59.3963 1280 45.5V121H1227C1173 121 1067 121 960 121C853 121 747 121 640 121C533 121 427 121 320 121C213 121 107 121 53 121H0V10Z" fill="#1C7BD9"/>
<path fill-rule="evenodd" clip-rule="evenodd" d="M0 54.4L42.6667 63.28C85.3333 72.16 170.667 89.92 256 85.48C341.333 81.04 426.667 54.4 512 36.64C597.333 18.88 682.667 10 768 10C853.333 10 938.667 18.88 1024 34.42C1109.33 49.96 1194.67 72.16 1237.33 83.26L1280 94.36V121H1237.33C1194.67 121 1109.33 121 1024 121C938.667 121 853.333 121 768 121C682.667 121 597.333 121 512 121C426.667 121 341.333 121 256 121C170.667 121 85.3333 121 42.6667 121H0V54.4Z" fill="#2196F3"/>
</svg>
